<svg width="152" height="57" viewBox="0 0 152 57" fill="none" xmlns="http://www.w3.org/2000/svg">
<g clip-path="url(#clip0_14_20)">
<path d="M27.6478 3.5526L22.517 19.5863H16.722L14.1337 11.0197L11.408 19.5863H5.61295L0.482178 3.5526H6.04815L8.84259 12.6689L11.7974 3.5526H16.7678L19.5622 12.7834L22.517 3.5526H27.6478Z" fill="#6339DA"/>
<path d="M33.1427 8.40851C34.0589 7.35486 35.4103 6.82804 37.1969 6.82804V11.4091C36.7846 11.348 36.4029 11.3175 36.0517 11.3175C34.2803 11.3175 33.3947 12.2184 33.3947 14.0203V19.5863H28.2181V7.0571H33.1427V8.40851Z" fill="#6339DA"/>
<path d="M44.1641 6.82804C46.363 6.82804 48.0427 7.32432 49.2032 8.31688C50.3637 9.29417 50.944 10.8059 50.944 12.8521V19.5863H46.1339V17.9371C45.5384 19.1892 44.3549 19.8153 42.5836 19.8153C41.591 19.8153 40.7435 19.6473 40.0411 19.3114C39.354 18.9602 38.8271 18.4944 38.4607 17.9142C38.1094 17.3186 37.9338 16.6544 37.9338 15.9214C37.9338 14.6845 38.4072 13.7454 39.354 13.1041C40.3007 12.4627 41.7361 12.1421 43.6601 12.1421H45.7445C45.5766 11.1648 44.7901 10.6761 43.3853 10.6761C42.8203 10.6761 42.2477 10.7677 41.6674 10.951C41.0871 11.119 40.5908 11.3556 40.1786 11.661L38.5294 8.24817C39.2471 7.80533 40.1098 7.46175 41.1177 7.21743C42.1408 6.95784 43.1562 6.82804 44.1641 6.82804ZM44.1412 16.7002C44.5076 16.7002 44.836 16.6009 45.1261 16.4024C45.4162 16.2039 45.63 15.9062 45.7674 15.5091V14.6387H44.4847C43.4311 14.6387 42.9043 14.9899 42.9043 15.6924C42.9043 15.9825 43.0112 16.2268 43.2249 16.4253C43.454 16.6086 43.7594 16.7002 44.1412 16.7002Z" fill="#6339DA"/>
<path d="M61.5416 6.82804C62.6411 6.82804 63.6489 7.09527 64.5651 7.62973C65.4966 8.14891 66.2296 8.90479 66.764 9.89735C67.3137 10.8899 67.5886 12.0352 67.5886 13.3331C67.5886 14.6311 67.3137 15.7764 66.764 16.7689C66.2296 17.7462 65.4966 18.5021 64.5651 19.0365C63.6489 19.5557 62.6411 19.8153 61.5416 19.8153C60.152 19.8153 59.0908 19.4565 58.3578 18.7388V24.0299H53.1812V7.0571H58.1058V8.08783C58.8541 7.24797 59.9993 6.82804 61.5416 6.82804ZM60.3047 15.784C60.9003 15.784 61.3889 15.5702 61.7707 15.1426C62.1524 14.7151 62.3433 14.1119 62.3433 13.3331C62.3433 12.5544 62.1524 11.9512 61.7707 11.5236C61.3889 11.0808 60.9003 10.8594 60.3047 10.8594C59.7092 10.8594 59.2206 11.0808 58.8388 11.5236C58.457 11.9512 58.2662 12.5544 58.2662 13.3331C58.2662 14.1119 58.457 14.7151 58.8388 15.1426C59.2206 15.5702 59.7092 15.784 60.3047 15.784Z" fill="#6339DA"/>
<path d="M77.5798 6.82804C78.6792 6.82804 79.687 7.09527 80.6032 7.62973C81.5347 8.14891 82.2677 8.90479 82.8021 9.89735C83.3519 10.8899 83.6267 12.0352 83.6267 13.3331C83.6267 14.6311 83.3519 15.7764 82.8021 16.7689C82.2677 17.7462 81.5347 18.5021 80.6032 19.0365C79.687 19.5557 78.6792 19.8153 77.5798 19.8153C76.1902 19.8153 75.1289 19.4565 74.3959 18.7388V24.0299H69.2193V7.0571H74.144V8.08783C74.8922 7.24797 76.0375 6.82804 77.5798 6.82804ZM76.3429 15.784C76.9384 15.784 77.4271 15.5702 77.8088 15.1426C78.1906 14.7151 78.3814 14.1119 78.3814 13.3331C78.3814 12.5544 78.1906 11.9512 77.8088 11.5236C77.4271 11.0808 76.9384 10.8594 76.3429 10.8594C75.7473 10.8594 75.2587 11.0808 74.8769 11.5236C74.4952 11.9512 74.3043 12.5544 74.3043 13.3331C74.3043 14.1119 74.4952 14.7151 74.8769 15.1426C75.2587 15.5702 75.7473 15.784 76.3429 15.784Z" fill="#6339DA"/>
<path d="M98.5883 13.3102C98.5883 13.3866 98.5654 13.7912 98.5196 14.5242H89.8156C89.9989 14.9976 90.3043 15.3641 90.7318 15.6237C91.1594 15.868 91.6938 15.9901 92.3352 15.9901C92.8849 15.9901 93.343 15.9214 93.7095 15.784C94.0913 15.6466 94.5036 15.4099 94.9464 15.0739L97.6492 17.7997C96.4276 19.1434 94.6028 19.8153 92.1749 19.8153C90.6631 19.8153 89.3346 19.5404 88.1894 18.9907C87.0441 18.4257 86.1584 17.6469 85.5323 16.6544C84.9063 15.6618 84.5932 14.5471 84.5932 13.3102C84.5932 12.0581 84.8986 10.9434 85.5094 9.96606C86.1355 8.9735 86.983 8.20236 88.0519 7.65263C89.1361 7.10291 90.3501 6.82804 91.6939 6.82804C92.9613 6.82804 94.1142 7.08 95.1525 7.58392C96.2062 8.08783 97.0384 8.82843 97.6492 9.80572C98.2753 10.783 98.5883 11.9512 98.5883 13.3102ZM91.7397 10.3554C91.2052 10.3554 90.7624 10.5005 90.4112 10.7906C90.0599 11.0808 89.8309 11.4931 89.724 12.0275H93.7553C93.6484 11.5083 93.4194 11.1037 93.0682 10.8136C92.717 10.5082 92.2741 10.3554 91.7397 10.3554Z" fill="#6339DA"/>
<path d="M114.08 2.59058V19.5863H109.155V18.5555C108.407 19.3954 107.261 19.8153 105.719 19.8153C104.62 19.8153 103.604 19.5557 102.673 19.0365C101.757 18.5021 101.024 17.7386 100.474 16.746C99.9394 15.7534 99.6722 14.6082 99.6722 13.3102C99.6722 12.0123 99.9394 10.8746 100.474 9.89735C101.024 8.90479 101.757 8.14891 102.673 7.62973C103.604 7.09527 104.62 6.82804 105.719 6.82804C107.109 6.82804 108.17 7.18689 108.903 7.90459V2.59058H114.08ZM106.956 15.784C107.552 15.784 108.04 15.5702 108.422 15.1426C108.804 14.6998 108.995 14.089 108.995 13.3102C108.995 12.5314 108.804 11.9283 108.422 11.5007C108.04 11.0731 107.552 10.8594 106.956 10.8594C106.361 10.8594 105.872 11.0731 105.49 11.5007C105.108 11.9283 104.918 12.5314 104.918 13.3102C104.918 14.089 105.108 14.6998 105.49 15.1426C105.872 15.5702 106.361 15.784 106.956 15.784Z" fill="#6339DA"/>
<path d="M1.55872 32.1841H6.96436V44.0261H14.2024V48.2178H1.55872V32.1841Z" fill="#6339DA"/>
<path d="M21.3707 35.4596C23.5696 35.4596 25.2493 35.9559 26.4098 36.9484C27.5704 37.9257 28.1506 39.4375 28.1506 41.4837V48.2178H23.3405V46.5686C22.745 47.8208 21.5616 48.4469 19.7902 48.4469C18.7977 48.4469 17.9502 48.2789 17.2477 47.9429C16.5606 47.5917 16.0338 47.126 15.6673 46.5457C15.3161 45.9502 15.1405 45.2859 15.1405 44.553C15.1405 43.3161 15.6138 42.377 16.5606 41.7356C17.5073 41.0943 18.9427 40.7736 20.8668 40.7736H22.9511C22.7832 39.7963 21.9968 39.3077 20.5919 39.3077C20.0269 39.3077 19.4543 39.3993 18.874 39.5825C18.2937 39.7505 17.7975 39.9872 17.3852 40.2926L15.736 36.8797C16.4537 36.4369 17.3164 36.0933 18.3243 35.849C19.3474 35.5894 20.3628 35.4596 21.3707 35.4596ZM21.3478 45.3317C21.7143 45.3317 22.0426 45.2325 22.3327 45.034C22.6228 44.8355 22.8366 44.5377 22.974 44.1407V43.2703H21.6913C20.6377 43.2703 20.1109 43.6215 20.1109 44.3239C20.1109 44.614 20.2178 44.8584 20.4316 45.0569C20.6606 45.2401 20.966 45.3317 21.3478 45.3317Z" fill="#6339DA"/>
<path d="M44.1134 35.6886L38.9597 48.4698C38.3031 50.1037 37.4862 51.2489 36.5089 51.9055C35.5316 52.5622 34.3329 52.8905 32.9128 52.8905C32.2103 52.8905 31.5003 52.7836 30.7826 52.5698C30.0801 52.3713 29.5228 52.1041 29.1105 51.7681L30.8284 48.2178C31.088 48.4163 31.3781 48.5766 31.6988 48.6988C32.0347 48.821 32.3554 48.882 32.6608 48.882C33.2258 48.882 33.6534 48.7141 33.9435 48.3781L28.6753 35.6886H33.9893L36.5776 42.3999L39.2117 35.6886H44.1134Z" fill="#6339DA"/>
<path d="M51.189 48.4469C49.7994 48.4469 48.5473 48.172 47.4325 47.6223C46.3331 47.0573 45.4703 46.2861 44.8442 45.3088C44.2182 44.3163 43.9051 43.1939 43.9051 41.9418C43.9051 40.6896 44.2182 39.5749 44.8442 38.5976C45.4703 37.605 46.3331 36.8339 47.4325 36.2842C48.5473 35.7344 49.7994 35.4596 51.189 35.4596C52.5938 35.4596 53.846 35.7344 54.9454 36.2842C56.0602 36.8339 56.9229 37.605 57.5337 38.5976C58.1598 39.5749 58.4729 40.6896 58.4729 41.9418C58.4729 43.1939 58.1598 44.3163 57.5337 45.3088C56.9229 46.2861 56.0602 47.0573 54.9454 47.6223C53.846 48.172 52.5938 48.4469 51.189 48.4469ZM51.189 44.4155C51.7845 44.4155 52.2732 44.2017 52.6549 43.7742C53.0367 43.3314 53.2276 42.7205 53.2276 41.9418C53.2276 41.163 53.0367 40.5598 52.6549 40.1323C52.2732 39.7047 51.7845 39.4909 51.189 39.4909C50.5935 39.4909 50.1048 39.7047 49.7231 40.1323C49.3413 40.5598 49.1504 41.163 49.1504 41.9418C49.1504 42.7205 49.3413 43.3314 49.7231 43.7742C50.1048 44.2017 50.5935 44.4155 51.189 44.4155Z" fill="#6339DA"/>
<path d="M73.7904 35.6886V48.2178H68.8657V47.0267C68.4076 47.5001 67.8732 47.859 67.2624 48.1033C66.6516 48.3323 66.0026 48.4469 65.3154 48.4469C63.7273 48.4469 62.4523 47.9658 61.4903 47.0038C60.5282 46.0265 60.0472 44.5606 60.0472 42.606V35.6886H65.2238V41.7127C65.2238 42.5678 65.3612 43.1786 65.6361 43.5451C65.911 43.9116 66.3156 44.0949 66.8501 44.0949C67.354 44.0949 67.7739 43.8963 68.1099 43.4993C68.4458 43.087 68.6138 42.4457 68.6138 41.5753V35.6886H73.7904Z" fill="#6339DA"/>
<path d="M85.3173 47.7826C84.5385 48.2254 83.4772 48.4469 82.1334 48.4469C80.3774 48.4469 79.0259 48.0269 78.0792 47.1871C77.1324 46.3319 76.6591 45.0569 76.6591 43.3619V40.1552H74.9412V36.3758H76.6591V32.8713H81.8357V36.3758H84.401V40.1552H81.8357V43.3161C81.8357 43.6978 81.9349 43.9956 82.1334 44.2094C82.3319 44.4232 82.5915 44.5301 82.9122 44.5301C83.355 44.5301 83.7444 44.4155 84.0804 44.1865L85.3173 47.7826Z" fill="#6339DA"/>
<path d="M125.277 11.9511H148.182V40.5826H100.299L108.378 32.5043L105.678 29.8049L94.3415 41.1417C93.5961 41.8871 93.5961 43.0957 94.3415 43.8411L105.91 55.4095L108.609 52.7101L100.299 44.4002H152V8.13354H125.277V11.9511Z" fill="#6339DA"/>
</g>
<defs>
<clipPath id="clip0_14_20">
<rect width="152" height="57" fill="white"/>
</clipPath>
</defs>
</svg>
